<?xml version="1.0" encoding="UTF-8"?>
<svg version="1.1" xmlns="http://www.w3.org/2000/svg" width="512" height="512">
<path d="M0 0 C0.89902039 -0.00511093 1.79804077 -0.01022186 2.7243042 -0.01548767 C5.6640916 -0.02926385 8.6036414 -0.02843598 11.54345703 -0.02612305 C13.60792119 -0.03001653 15.67238457 -0.03435253 17.73684692 -0.03910828 C22.05213016 -0.04654476 26.36733154 -0.0462979 30.68261719 -0.04101562 C36.18540245 -0.03522429 41.68785076 -0.05215664 47.19058037 -0.0753603 C51.45107957 -0.09016257 55.71149883 -0.09096053 59.9720192 -0.08785057 C61.99960116 -0.08836051 64.02718798 -0.09353615 66.05474472 -0.10366249 C92.7537505 -0.22066072 92.7537505 -0.22066072 102.36376953 6.9621582 C103.13793213 7.52930542 103.13793213 7.52930542 103.92773438 8.10791016 C105.77780968 9.47520743 107.60181494 10.87336269 109.42626953 12.2746582 C111.03397169 13.49389725 112.64207246 14.71261077 114.25048828 15.9309082 C117.85047511 18.66466188 121.44092629 21.41049052 125.02783203 24.16137695 C130.70835792 28.50632109 136.46454029 32.74247076 142.23657227 36.96459961 C149.31364198 42.15637526 156.28459245 47.48334213 163.22314453 52.85864258 C164.04685547 53.4922168 164.87056641 54.12579102 165.71923828 54.77856445 C166.43619873 55.33358643 167.15315918 55.8886084 167.8918457 56.46044922 C168.72820557 57.05913818 169.56456543 57.65782715 170.42626953 58.2746582 C171.23849563 58.89299013 171.23849563 58.89299013 172.06713033 59.52381361 C177.59458917 63.41382443 181.9147486 63.98594104 188.57073975 63.89370728 C189.56549513 63.89994625 190.56025052 63.90618523 191.58515 63.91261327 C194.90467016 63.92748556 198.22300431 63.90691653 201.54248047 63.88647461 C203.92810482 63.89001702 206.31372674 63.89579601 208.69934082 63.90364075 C214.49901479 63.91739642 220.29834339 63.9086212 226.09799787 63.89056779 C232.86166953 63.87108012 239.62518469 63.88245212 246.38885739 63.89633982 C258.46547849 63.92059043 270.54201418 63.92482654 282.61865234 63.91430664 C283.70170974 63.9133709 283.70170974 63.9133709 284.80664709 63.91241626 C286.26785563 63.91114501 287.72906417 63.90987077 289.1902727 63.90859356 C290.2767884 63.90764498 290.2767884 63.90764498 291.38525391 63.90667725 C292.47262033 63.90572003 292.47262033 63.90572003 293.58195375 63.90474347 C301.62543614 63.89794337 309.66891731 63.89594658 317.71240234 63.89575195 C318.43234264 63.89572912 319.15228293 63.89570629 319.8940396 63.89568277 C331.92221877 63.89575214 343.95036563 63.90781695 355.97852921 63.92671144 C364.04378911 63.93861063 372.10883 63.93381478 380.17407942 63.91669106 C385.20053122 63.90877232 390.2269218 63.91305806 395.25337219 63.92040062 C397.57687542 63.9212083 399.9003872 63.91689325 402.22386932 63.90695763 C431.67051219 63.78717549 431.67051219 63.78717549 441.38720703 72.1965332 C451.15065089 82.14701621 452.74160829 91.82508722 452.68023682 105.36317444 C452.6833568 106.43525931 452.68647678 107.50734419 452.68969131 108.61191648 C452.69762657 112.18062505 452.69136511 115.74916146 452.68505859 119.31787109 C452.68777042 121.88599242 452.69133243 124.45411297 452.69567871 127.02223206 C452.7045454 133.25900889 452.70266298 139.49573743 452.69685343 145.73251612 C452.69232659 150.803238 452.69172845 155.8739464 452.69390106 160.94466972 C452.69420753 161.66786096 452.69451399 162.3910522 452.69482975 163.13615833 C452.69546923 164.60554541 452.69611766 166.07493249 452.69677493 167.54431956 C452.70247014 181.30396376 452.69593284 195.06358126 452.6851742 208.82322108 C452.67623752 220.61767507 452.67779326 232.41208969 452.68701172 244.20654297 C452.69772539 257.92034552 452.70192288 271.6341247 452.69578719 285.34793085 C452.69515013 286.81144138 452.69452138 288.27495191 452.69390106 289.73846245 C452.69359251 290.45844305 452.69328396 291.17842366 452.69296606 291.92022185 C452.69124255 296.98262314 452.69414675 302.04500954 452.69886017 307.10740852 C452.70506931 313.9257815 452.70062082 320.74407901 452.68907166 327.56244469 C452.68642981 330.06297304 452.68718203 332.56350766 452.69159698 335.06403351 C452.69707245 338.48048161 452.69019381 341.89669256 452.68023682 345.31312561 C452.68469826 346.29951729 452.6891597 347.28590898 452.69375634 348.30219132 C452.62778849 359.99443155 450.13730909 368.34324615 442.17626953 377.0246582 C435.7807216 383.15430808 427.85533989 385.40551634 419.18896484 385.38818359 C417.92795959 385.38810806 416.66695435 385.38803253 415.36773682 385.38795471 C413.99662232 385.38284849 412.62550822 385.3776325 411.25439453 385.37231445 C409.84763642 385.37044848 408.44087765 385.36902543 407.03411865 385.36802673 C403.33846226 385.36421564 399.6428454 385.3543974 395.94720459 385.34332275 C392.17330459 385.33307834 388.39939819 385.32852262 384.62548828 385.32348633 C377.22573071 385.31277384 369.82600567 385.29571436 362.42626953 385.2746582 C362.63759773 383.79876724 362.63759773 383.79876724 362.85319519 382.2930603 C364.13106517 373.18402068 364.76924432 364.3247246 364.74194336 355.12329102 C364.7387809 352.90762096 364.76237692 350.69329022 364.78759766 348.4777832 C364.92935842 316.40263819 353.39363963 286.46759647 335.42626953 260.2746582 C334.69923828 259.18926758 333.97220703 258.10387695 333.22314453 256.9855957 C310.5562462 224.88857555 272.73652525 203.47842022 234.43017578 196.48950195 C231.09685026 195.98783089 227.78201256 195.59015541 224.42626953 195.2746582 C223.31896484 195.16508789 222.21166016 195.05551758 221.07080078 194.94262695 C179.94786328 191.32689388 138.05502468 203.14499042 106.11376953 229.6496582 C104.12696884 231.33407411 102.15356129 233.03140786 100.19262695 234.74584961 C98.55709151 236.16142983 96.89024423 237.52528516 95.20751953 238.8840332 C67.22728943 262.93445571 50.9434266 304.24885072 48.07470703 340.2980957 C47.20366765 353.23162088 47.59760388 365.71203006 49.4543457 378.55297852 C49.63591721 379.81217102 49.81748871 381.07136353 50.00456238 382.36871338 C50.14372574 383.32767517 50.2828891 384.28663696 50.42626953 385.2746582 C42.40212708 385.36784609 34.37821539 385.4386678 26.35366344 385.48190689 C22.62644861 385.50267251 18.89960734 385.53078432 15.17260742 385.57641602 C11.56749681 385.62027291 7.96274268 385.64387793 4.35738564 385.65416718 C2.99041453 385.66148792 1.6234602 385.6757811 0.2566433 385.69757843 C-11.55758572 385.87828059 -21.17705104 384.40633883 -29.92529297 375.99731445 C-37.12005718 368.47861536 -39.69205202 360.79883451 -39.70515823 350.47862816 C-39.70899938 349.3384953 -39.71284052 348.19836243 -39.71679807 347.02368009 C-39.71593158 345.78089343 -39.7150651 344.53810677 -39.71417236 343.25765991 C-39.71675799 341.91634811 -39.7197717 340.57503707 -39.72317576 339.2337271 C-39.73122589 335.55353361 -39.73303423 331.87335964 -39.73377323 328.19315839 C-39.73562726 324.22162178 -39.74317638 320.25009523 -39.74990845 316.27856445 C-39.76347836 307.59657412 -39.76951445 298.91458842 -39.77391911 290.23258924 C-39.7766839 284.80883277 -39.7809217 279.38507806 -39.78542328 273.96132278 C-39.79761439 258.93696645 -39.80791389 243.91261153 -39.81129837 228.88825035 C-39.81151794 227.92703855 -39.8117375 226.96582676 -39.81196372 225.97548733 C-39.812182 225.0120084 -39.81240028 224.04852946 -39.81262517 223.0558542 C-39.81306863 221.103561 -39.8135152 219.15126781 -39.81396484 217.19897461 C-39.81418627 216.23057493 -39.8144077 215.26217525 -39.81463584 214.26443012 C-39.81858249 198.57863716 -39.83603314 182.8928907 -39.85932437 167.20711569 C-39.88305813 151.09288912 -39.89550115 134.97868585 -39.89666629 118.86444151 C-39.89758193 109.8209013 -39.90330629 100.77742166 -39.9214859 91.73389816 C-39.93691426 84.03199105 -39.94199125 76.33016324 -39.9337478 68.62824361 C-39.92985091 64.70168885 -39.93072363 60.77529365 -39.94480515 56.8487587 C-39.95760204 53.24735429 -39.95629632 49.64622842 -39.94421443 46.04482408 C-39.94135185 44.13923707 -39.95314923 42.23364499 -39.96563649 40.32809675 C-39.90486249 29.66906763 -38.84362871 19.62354273 -31.65185547 11.3137207 C-22.20586601 2.04528743 -12.91746007 -0.03882957 0 0 Z " fill="#585C5D" transform="translate(49.57373046875,9.725341796875)"/>
<path d="M0 0 C0.78487793 0.19867676 1.56975586 0.39735352 2.37841797 0.60205078 C14.34911163 3.69372732 25.24824371 7.90147228 36 14 C36.58894043 14.33290039 37.17788086 14.66580078 37.78466797 15.00878906 C68.80542711 32.79205418 92.90269097 62.98743369 102.3828125 97.61621094 C108.25120987 120.28196723 109.51846069 144.11142386 104 167 C103.83371094 167.69706055 103.66742188 168.39412109 103.49609375 169.11230469 C96.32875514 198.06038894 79.61163068 225.48913971 56 244 C55.05382812 244.74507812 54.10765625 245.49015625 53.1328125 246.2578125 C22.76920545 269.38716822 -14.52457432 278.64253695 -52.2734375 273.7578125 C-77.18736824 270.07109078 -101.96547647 259.57864415 -121 243 C-121.58120605 242.4956543 -122.16241211 241.99130859 -122.76123047 241.47167969 C-148.41560545 218.96159259 -164.51672348 189.64917175 -170 156 C-170.18304688 154.96359375 -170.36609375 153.9271875 -170.5546875 152.859375 C-174.73921702 116.59345252 -165.24070089 79.93671345 -142.97192383 50.90161133 C-132.75211091 38.1968162 -121.04323886 26.38880975 -107 18 C-106.40574219 17.63116699 -105.81148438 17.26233398 -105.19921875 16.88232422 C-74.79851167 -1.92929344 -34.83806352 -9.18180552 0 0 Z M-33 57 C-34.42541537 58.3803119 -34.42541537 58.3803119 -35.87109375 60.2265625 C-36.72417114 61.26913208 -36.72417114 61.26913208 -37.59448242 62.33276367 C-38.20267822 63.08920166 -38.81087402 63.84563965 -39.4375 64.625 C-40.06567627 65.39755127 -40.69385254 66.17010254 -41.34106445 66.96606445 C-46.97452728 73.91445454 -52.50527213 80.94174823 -58 88 C-63.76468721 95.39057034 -69.57612214 102.73613503 -75.5 110 C-79.7762748 115.2500105 -84.03977768 120.50929282 -88.25 125.8125 C-88.94899414 126.68358398 -88.94899414 126.68358398 -89.66210938 127.57226562 C-91.61828014 130.04929275 -92.99269913 131.97809738 -94 135 C-80.47 135 -66.94 135 -53 135 C-53 163.38 -53 191.76 -53 221 C-39.14 221 -25.28 221 -11 221 C-11 192.62 -11 164.24 -11 135 C2.53 135 16.06 135 30 135 C28.50784452 132.01568904 27.3992191 130.0779673 25.34765625 127.6015625 C24.82413574 126.96460449 24.30061523 126.32764648 23.76123047 125.67138672 C23.20064941 124.9960791 22.64006836 124.32077148 22.0625 123.625 C20.87799647 122.18303853 19.69441802 120.7403167 18.51171875 119.296875 C17.9192334 118.57435547 17.32674805 117.85183594 16.71630859 117.10742188 C14.23292407 114.05812241 11.79815312 110.97225675 9.375 107.875 C8.92825928 107.30458984 8.48151855 106.73417969 8.02124023 106.14648438 C6.23438164 103.86271938 4.45025485 101.57682722 2.66601562 99.29101562 C-3.19012291 91.79344848 -9.11439139 84.35939006 -15.1394043 76.99658203 C-17.8684864 73.65399802 -20.56400596 70.29224974 -23.19921875 66.875 C-23.70324219 66.22273438 -24.20726562 65.57046875 -24.7265625 64.8984375 C-25.68125927 63.65784224 -26.6307231 62.41319759 -27.57421875 61.1640625 C-28.67075096 59.73990787 -29.82974963 58.36422629 -31 57 C-31.66 57 -32.32 57 -33 57 Z " fill="#6B7071" transform="translate(288,227)"/>
<path d="M0 0 C33.18999047 -0.09162305 66.37994804 -0.16207296 99.57003619 -0.20426132 C103.49143384 -0.20926394 107.41283124 -0.21444125 111.33422852 -0.21972656 C112.11488417 -0.2207758 112.89553983 -0.22182505 113.69985171 -0.22290608 C126.32805199 -0.24029529 138.95617917 -0.27182476 151.58433614 -0.30861118 C164.54901697 -0.34606199 177.5136596 -0.36824459 190.4783923 -0.37635398 C198.47365974 -0.38183319 206.46872056 -0.39911752 214.46392437 -0.43166587 C220.60220098 -0.45537664 226.74032117 -0.45780941 232.87863731 -0.45243073 C235.39123174 -0.4535292 237.90383414 -0.46145946 240.41638184 -0.4768219 C243.85476116 -0.4968101 247.2922663 -0.49190618 250.73066711 -0.48101807 C251.71805431 -0.49266943 252.70544151 -0.5043208 253.72274953 -0.51632524 C263.40413078 -0.43382104 272.09470599 2.16487483 279.2109375 8.9296875 C284.35713764 14.88489726 288.16596634 21.22059161 288.0625 29.1875 C288.05347656 30.08855469 288.04445313 30.98960938 288.03515625 31.91796875 C288.01775391 32.94857422 288.01775391 32.94857422 288 34 C256.96738589 34.19224767 225.93550143 34.31222811 194.90233744 34.33273234 C191.23030126 34.33522165 187.55826584 34.33832069 183.88623047 34.34179688 C183.15526082 34.34247861 182.42429118 34.34316034 181.67117094 34.34386273 C169.86863971 34.35632088 158.06686256 34.41805881 146.26461996 34.49833374 C134.13482785 34.57972736 122.00575038 34.60741012 109.87569988 34.58627188 C103.0701626 34.57592576 96.2665091 34.58955712 89.46133804 34.66541672 C83.04341317 34.73451456 76.62878559 34.73681562 70.21069336 34.68990898 C67.86707728 34.68418485 65.52325475 34.70197846 63.1800499 34.74625206 C46.86025575 35.03593678 37.65257363 31.96917855 25.75502944 20.62976575 C23.39392075 18.43717912 20.89167648 16.60470677 18.26171875 14.74609375 C17.09672852 13.90014648 17.09672852 13.90014648 15.90820312 13.03710938 C14.37762738 11.93461022 12.84633411 10.83310673 11.31445312 9.73242188 C10.55455078 9.18005859 9.79464844 8.62769531 9.01171875 8.05859375 C8.35647217 7.58736084 7.70122559 7.11612793 7.02612305 6.63061523 C4.49666325 4.59491672 2.28250004 2.30627287 0 0 Z " fill="#4F5253" transform="translate(192,21)"/>
</svg>
